<?xml version="1.0" encoding="UTF-8"?>
<!DOCTYPE svg PUBLIC "-//W3C//DTD SVG 1.1//EN" "http://www.w3.org/Graphics/SVG/1.1/DTD/svg11.dtd">
<svg xmlns="http://www.w3.org/2000/svg" version="1.1" width="676px" height="275px" style="shape-rendering:geometricPrecision; text-rendering:geometricPrecision; image-rendering:optimizeQuality; fill-rule:evenodd; clip-rule:evenodd" xmlns:xlink="http://www.w3.org/1999/xlink">
<g><path style="opacity:1" fill="#fefefe" d="M -0.5,-0.5 C 224.833,-0.5 450.167,-0.5 675.5,-0.5C 675.5,91.1667 675.5,182.833 675.5,274.5C 450.167,274.5 224.833,274.5 -0.5,274.5C -0.5,182.833 -0.5,91.1667 -0.5,-0.5 Z"/></g>
<g><path style="opacity:1" fill="#050505" d="M 51.5,58.5 C 60.2259,58.1614 68.8926,58.6614 77.5,60C 90.2921,63.7941 97.7921,72.2941 100,85.5C 101.286,95.1213 101.786,104.788 101.5,114.5C 93.5,114.5 85.5,114.5 77.5,114.5C 77.6664,106.826 77.4997,99.1594 77,91.5C 73.4283,81.082 66.595,78.2487 56.5,83C 54.3834,84.7309 52.8834,86.8976 52,89.5C 51.3333,123.167 51.3333,156.833 52,190.5C 54.8769,198.036 60.3769,200.869 68.5,199C 73.5219,197.308 76.3552,193.808 77,188.5C 77.4998,179.173 77.6665,169.839 77.5,160.5C 85.5,160.5 93.5,160.5 101.5,160.5C 102.092,173.283 101.258,185.95 99,198.5C 94.9123,211.583 86.079,219.416 72.5,222C 44.9461,225.664 29.4461,213.831 26,186.5C 25.3333,154.5 25.3333,122.5 26,90.5C 28.0682,74.6088 36.5682,63.9421 51.5,58.5 Z"/></g>
<g><path style="opacity:1" fill="#030303" d="M 574.5,58.5 C 608.271,54.6057 624.271,69.6057 622.5,103.5C 614.5,103.5 606.5,103.5 598.5,103.5C 598.666,98.4889 598.499,93.4889 598,88.5C 592.541,79.644 585.541,78.3107 577,84.5C 572.092,94.777 572.758,104.777 579,114.5C 589.692,126.191 600.692,137.524 612,148.5C 625.652,167.997 626.985,188.33 616,209.5C 610.283,216.11 603.116,220.277 594.5,222C 567.785,226.082 552.285,214.915 548,188.5C 547.501,183.177 547.334,177.844 547.5,172.5C 555.5,172.5 563.5,172.5 571.5,172.5C 571.334,178.176 571.501,183.843 572,189.5C 576.259,199.7 583.426,202.2 593.5,197C 596.845,192.959 598.178,188.292 597.5,183C 597.836,177.006 596.336,171.506 593,166.5C 582.752,155.249 572.085,144.249 561,133.5C 548.778,116.737 545.778,98.4032 552,78.5C 556.276,68.0492 563.776,61.3825 574.5,58.5 Z"/></g>
<g><path style="opacity:1" fill="#020202" d="M 177.5,60.5 C 190.25,59.8649 202.75,60.5316 215,62.5C 223.178,115.234 231.678,167.901 240.5,220.5C 231.833,220.5 223.167,220.5 214.5,220.5C 213.353,210.803 212.02,201.137 210.5,191.5C 200.145,191.168 189.812,191.501 179.5,192.5C 177.517,201.735 176.183,211.068 175.5,220.5C 167.472,220.831 159.472,220.498 151.5,219.5C 160.059,166.478 168.726,113.478 177.5,60.5 Z"/></g>
<g><path style="opacity:1" fill="#696969" d="M 330.5,60.5 C 318.833,60.5 307.167,60.5 295.5,60.5C 295.5,113.833 295.5,167.167 295.5,220.5C 294.501,167.003 294.168,113.336 294.5,59.5C 306.678,59.1716 318.678,59.5049 330.5,60.5 Z"/></g>
<g><path style="opacity:1" fill="#010101" d="M 330.5,60.5 C 336.233,98.2337 342.4,135.9 349,173.5C 355.014,135.903 360.514,98.2368 365.5,60.5C 377.5,60.5 389.5,60.5 401.5,60.5C 401.5,113.833 401.5,167.167 401.5,220.5C 393.5,220.5 385.5,220.5 377.5,220.5C 377.667,182.165 377.5,143.832 377,105.5C 370.986,143.761 365.486,182.095 360.5,220.5C 352.167,220.5 343.833,220.5 335.5,220.5C 330.05,183.801 324.383,147.134 318.5,110.5C 318.539,109.244 318.039,108.244 317,107.5C 316.5,145.165 316.333,182.832 316.5,220.5C 309.5,220.5 302.5,220.5 295.5,220.5C 295.5,167.167 295.5,113.833 295.5,60.5C 307.167,60.5 318.833,60.5 330.5,60.5 Z"/></g>
<g><path style="opacity:1" fill="#010101" d="M 418.5,60.5 C 426.833,60.5 435.167,60.5 443.5,60.5C 443.333,103.168 443.5,145.835 444,188.5C 446.879,198.698 453.379,201.864 463.5,198C 466.187,196.125 468.021,193.625 469,190.5C 469.5,147.168 469.667,103.835 469.5,60.5C 477.5,60.5 485.5,60.5 493.5,60.5C 493.667,104.168 493.5,147.835 493,191.5C 489.124,212.206 476.624,222.539 455.5,222.5C 436.951,222.761 425.118,214.094 420,196.5C 418.526,151.206 418.026,105.872 418.5,60.5 Z"/></g>
<g><path style="opacity:1" fill="#f6f6f6" d="M 194.5,88.5 C 199.415,115.232 203.415,142.232 206.5,169.5C 198.5,169.5 190.5,169.5 182.5,169.5C 186.315,142.463 190.315,115.463 194.5,88.5 Z"/></g>
<g><path style="opacity:1" fill="#6e6e6e" d="M 318.5,110.5 C 317.833,147.167 317.167,183.833 316.5,220.5C 316.333,182.832 316.5,145.165 317,107.5C 318.039,108.244 318.539,109.244 318.5,110.5 Z"/></g>
<g><path style="opacity:1" fill="#000000" d="M 115.5,196.5 C 123.5,196.5 131.5,196.5 139.5,196.5C 139.5,204.5 139.5,212.5 139.5,220.5C 131.5,220.5 123.5,220.5 115.5,220.5C 115.5,212.5 115.5,204.5 115.5,196.5 Z"/></g>
<g><path style="opacity:1" fill="#040404" d="M 251.5,196.5 C 259.833,196.5 268.167,196.5 276.5,196.5C 276.5,204.5 276.5,212.5 276.5,220.5C 268.167,220.5 259.833,220.5 251.5,220.5C 251.5,212.5 251.5,204.5 251.5,196.5 Z"/></g>
<g><path style="opacity:1" fill="#040404" d="M 509.5,196.5 C 517.833,196.5 526.167,196.5 534.5,196.5C 534.5,204.5 534.5,212.5 534.5,220.5C 526.167,220.5 517.833,220.5 509.5,220.5C 509.5,212.5 509.5,204.5 509.5,196.5 Z"/></g>
<g><path style="opacity:1" fill="#060606" d="M 636.5,196.5 C 644.833,196.5 653.167,196.5 661.5,196.5C 661.5,204.5 661.5,212.5 661.5,220.5C 653.167,220.5 644.833,220.5 636.5,220.5C 636.5,212.5 636.5,204.5 636.5,196.5 Z"/></g>
</svg>
